<?xml version="1.0" standalone="no"?>
<!DOCTYPE svg PUBLIC "-//W3C//DTD SVG 20010904//EN"
 "http://www.w3.org/TR/2001/REC-SVG-20010904/DTD/svg10.dtd">
<svg version="1.0" xmlns="http://www.w3.org/2000/svg"
 width="240.000000pt" height="240.000000pt" viewBox="0 0 240.000000 240.000000"
 preserveAspectRatio="xMidYMid meet">

<g transform="translate(0.000000,240.000000) scale(0.100000,-0.100000)"
fill="#000000" stroke="none">
<path d="M1030 2210 c-85 -17 -186 -53 -270 -96 -102 -51 -305 -217 -296 -241
3 -7 0 -12 -7 -10 -7 1 -11 -4 -9 -11 1 -6 -2 -11 -6 -10 -15 5 -64 -61 -56
-73 4 -7 3 -9 -4 -5 -6 4 -26 -20 -48 -59 -108 -194 -158 -423 -135 -625 37
-334 201 -603 479 -787 48 -31 90 -52 98 -49 8 3 13 2 10 -2 -10 -17 146 -76
269 -103 90 -19 303 -16 404 5 134 29 370 133 356 156 -4 6 1 7 11 3 13 -5 15
-3 9 7 -5 9 -4 11 4 6 15 -10 150 107 215 186 85 104 97 123 83 137 -9 10 -9
11 4 6 12 -5 26 14 58 78 37 77 95 268 90 299 -1 7 1 21 6 32 12 28 -2 294
-18 348 -8 26 -12 49 -9 52 3 4 1 6 -4 6 -5 0 -10 13 -11 29 -3 39 -80 203
-131 278 -53 79 -142 174 -155 166 -6 -3 -7 -1 -4 5 12 18 -145 138 -164 126
-8 -4 -9 -3 -5 5 8 13 -191 114 -207 104 -5 -3 -12 -1 -16 5 -3 6 -53 20 -110
32 -127 26 -305 26 -431 0z m454 -69 c43 -11 83 -18 89 -14 6 4 7 1 3 -6 -5
-8 -3 -11 5 -10 17 3 119 -45 171 -79 20 -13 42 -21 48 -17 6 3 9 1 8 -7 -2
-7 5 -12 14 -12 10 1 17 -1 16 -5 -2 -10 216 -225 225 -223 5 1 5 -3 2 -9 -4
-6 1 -23 12 -37 10 -15 30 -48 43 -74 13 -26 27 -45 31 -42 4 2 6 -2 6 -9 -1
-6 13 -55 30 -107 86 -260 67 -514 -58 -762 -42 -84 -103 -175 -132 -197 -10
-7 -16 -20 -13 -28 3 -8 2 -12 -2 -9 -5 3 -33 -18 -63 -46 -125 -118 -298
-205 -481 -242 -93 -19 -265 -20 -368 -2 -41 7 -82 11 -90 8 -8 -3 -12 -2 -8
3 9 10 -122 56 -135 48 -6 -3 -7 -2 -4 4 8 13 -61 46 -76 37 -7 -4 -9 -4 -5 1
4 4 -26 31 -66 59 -104 71 -193 156 -239 229 -10 15 -22 25 -26 22 -5 -2 -8 1
-7 8 0 6 -19 50 -43 97 -82 160 -112 282 -112 459 0 166 46 356 114 466 107
175 195 271 322 355 44 28 79 56 77 62 -1 5 2 7 8 3 6 -4 30 2 54 14 24 11 56
23 70 27 14 3 23 11 19 17 -4 6 -1 7 6 3 7 -5 25 -3 41 4 103 43 370 49 514
11z"/>
<path d="M1200 2083 c-113 -7 -284 -53 -295 -81 -3 -9 -6 -212 -5 -452 1 -239
1 -439 1 -445 -1 -6 -43 -9 -112 -7 -70 3 -110 0 -108 -6 9 -24 91 -102 101
-96 7 4 8 3 4 -4 -4 -7 19 -41 55 -82 60 -67 88 -87 76 -56 -4 9 -1 13 6 11
14 -4 373 401 369 416 -1 6 2 8 7 5 12 -8 77 72 73 88 -2 6 0 8 4 3 9 -9 44
22 44 40 0 7 4 12 8 11 16 -5 114 111 106 124 -4 7 -3 10 1 5 5 -4 19 3 32 14
l23 22 33 -37 c18 -20 37 -33 41 -29 4 5 6 3 4 -4 -1 -6 22 -40 53 -75 201
-227 262 -293 271 -290 5 1 7 -2 4 -7 -4 -5 2 -14 11 -20 10 -5 15 -12 11 -16
-3 -4 -81 -6 -172 -5 l-166 1 0 -365 0 -366 48 30 c90 57 216 176 205 193 -3
6 -1 7 5 3 12 -7 109 132 118 171 4 13 9 23 13 23 7 0 27 54 58 155 14 47 18
96 18 225 0 160 -1 168 -33 265 -36 111 -103 241 -121 237 -7 -1 -10 2 -7 7 3
4 -11 30 -30 56 -28 36 -39 44 -46 34 -8 -11 -9 -10 -5 2 6 19 -36 62 -131
133 -35 27 -67 44 -74 40 -6 -4 -8 -3 -5 3 8 13 -133 77 -218 98 -75 19 -202
32 -275 28z"/>
<path d="M764 1944 c-44 -30 -65 -55 -57 -68 4 -5 1 -6 -6 -2 -6 4 -9 13 -5
19 3 7 -6 -1 -20 -16 -14 -15 -26 -26 -26 -23 0 16 -140 -143 -149 -168 -2 -6
-12 -21 -23 -32 -20 -23 -68 -131 -99 -228 -53 -164 -44 -405 22 -566 13 -30
28 -58 34 -62 5 -4 7 -8 2 -8 -25 0 87 -162 171 -248 192 -195 475 -297 732
-263 118 15 156 24 213 48 l37 16 0 429 0 428 110 0 c61 0 110 3 110 6 0 14
-105 122 -113 117 -6 -3 -7 -2 -4 4 7 11 -36 57 -45 48 -2 -3 -13 5 -24 17
l-19 23 23 -19 c33 -28 27 -4 -7 28 -16 16 -34 25 -40 21 -29 -17 -180 -198
-174 -207 3 -6 2 -8 -4 -5 -13 8 -56 -37 -46 -48 5 -4 3 -5 -3 -2 -15 9 -48
-29 -38 -44 4 -7 3 -10 -3 -6 -17 11 -209 -203 -195 -218 4 -5 2 -5 -4 -2 -6
3 -55 -44 -109 -104 l-98 -111 -25 32 c-19 25 -27 29 -34 18 -8 -10 -9 -9 -5
4 6 19 -15 42 -28 30 -5 -4 -5 -1 0 6 9 16 -63 94 -78 85 -6 -3 -7 -1 -4 4 4
6 -3 22 -16 35 -20 22 -103 116 -200 224 -20 23 -34 44 -30 48 3 3 80 6 170 6
l163 0 0 390 c0 215 -4 390 -9 390 -4 0 -26 -12 -47 -26z"/>
</g>
</svg>
